<svg xmlns="http://www.w3.org/2000/svg" width="39" height="38" viewBox="0 0 39 38" fill="black">
<path d="M39 22.3453C39 21.3687 38.6116 20.4587 37.9437 19.7859C38.7026 18.9556 39.0877 17.8408 38.9821 16.6838C38.7936 14.6184 36.9313 12.9999 34.7457 12.9999H24.7098C25.2037 11.4903 26.0001 8.72297 26.0001 6.49997C26.0001 2.97535 23.0052 0 21.1251 0C19.4367 0 18.2293 0.949025 18.179 0.989625C17.9855 1.14562 17.8751 1.37803 17.8751 1.62497V7.13372L13.1951 17.2753L13.0001 17.3728V17.0624C13.0001 16.6139 12.6361 16.2499 12.1876 16.2499H4.06247C1.82325 16.25 0 18.0732 0 20.3125V33.3125C0 35.5517 1.82325 37.375 4.06247 37.375H8.93747C10.6958 37.375 12.1956 36.2537 12.7628 34.6904C14.1147 35.3859 15.9348 35.7516 17.0641 35.7516H31.98C33.7496 35.7516 35.2966 34.5572 35.6606 32.9127C35.8475 32.0661 35.7386 31.213 35.3681 30.472C36.5674 29.8675 37.375 28.6308 37.375 27.2203C37.375 26.6451 37.2434 26.0942 36.9932 25.5953C38.1923 24.9908 39 23.7542 39 22.3453ZM11.375 33.3125C11.375 34.6564 10.2797 35.75 8.93747 35.75H4.06247C2.71697 35.75 1.62497 34.6564 1.62497 33.3125V20.3125C1.62497 18.9685 2.71857 17.8749 4.06247 17.8749V17.8831H11.3717V18.6956C11.3717 18.7005 11.375 18.7038 11.375 18.7087V33.3125ZM35.5713 24.3522C35.2577 24.388 34.9928 24.6009 34.8937 24.9015C34.7946 25.2005 34.8757 25.532 35.1065 25.7482C35.5209 26.1398 35.7485 26.6631 35.7485 27.222C35.7485 28.2458 34.9749 29.1086 33.948 29.2256C33.6344 29.2613 33.3694 29.4743 33.2704 29.7749C33.1713 30.0739 33.2525 30.4054 33.4833 30.6216C34.0195 31.127 34.234 31.8354 34.0731 32.5618C33.8733 33.4669 32.9925 34.1251 31.9785 34.1251H17.0625C15.8551 34.1251 13.9117 33.6035 13 32.9258V19.1945L14.1716 18.6095C14.3358 18.5266 14.4674 18.3901 14.5454 18.2227L19.4204 7.66022C19.4692 7.55457 19.4951 7.43757 19.4951 7.32057V2.07507C19.8331 1.88822 20.4198 1.63305 21.1201 1.63305C22.0106 1.63305 24.3701 3.8479 24.3701 6.50805C24.3701 9.3664 22.815 13.4906 22.7988 13.5313C22.7046 13.7799 22.737 14.0611 22.8898 14.2805C23.0425 14.4998 23.2911 14.6315 23.5593 14.6315H34.7409C36.0962 14.6315 37.2467 15.6 37.3604 16.8382C37.4466 17.7645 37.0045 18.6453 36.205 19.1377C35.9548 19.2904 35.8086 19.5683 35.8199 19.8608C35.8297 20.1533 35.9987 20.4165 36.2603 20.5514C36.946 20.9024 37.3717 21.5914 37.3717 22.3487C37.3702 23.3724 36.5966 24.2352 35.5713 24.3522Z"/>
</svg>